<svg width="24" height="24" viewBox="0 0 24 24" fill="none" xmlns="http://www.w3.org/2000/svg">
<path fill-rule="evenodd" clip-rule="evenodd" d="M3.47361 2.84252C3.47361 2.49371 3.19084 2.21094 2.84203 2.21094C2.49322 2.21094 2.21045 2.49371 2.21045 2.84252V21.1583C2.21045 21.5071 2.49322 21.7899 2.84203 21.7899C3.19084 21.7899 3.47361 21.5071 3.47361 21.1583V12.632H11.9999V21.1583C11.9999 21.5071 12.2827 21.7899 12.6315 21.7899C12.9803 21.7899 13.2631 21.5071 13.2631 21.1583V2.84252C13.2631 2.49371 12.9803 2.21094 12.6315 2.21094C12.2827 2.21094 11.9999 2.49371 11.9999 2.84252V11.3688H3.47361V2.84252ZM20.6344 2.21094H20.4224L20.2533 2.3389L16.3811 5.26931C16.1029 5.4798 16.0481 5.87591 16.2586 6.15406C16.4691 6.4322 16.8652 6.48704 17.1433 6.27655L20.5262 3.71643V21.1583C20.5262 21.5071 20.809 21.7899 21.1578 21.7899C21.5066 21.7899 21.7894 21.5071 21.7894 21.1583V2.84252C21.7894 2.49371 21.5066 2.21094 21.1578 2.21094H20.6344Z" fill="#333333"/>
</svg>
