<svg width="24" height="24" viewBox="0 0 24 24" fill="none" xmlns="http://www.w3.org/2000/svg">
<path fill-rule="evenodd" clip-rule="evenodd" d="M16.2748 2.21094C19.3203 2.21094 21.7894 4.68006 21.7894 7.7255C21.7894 9.23017 21.0483 11.0417 19.7108 13.1222C18.981 14.2576 18.0865 15.4502 17.0634 16.678C16.0498 17.8943 14.9653 19.08 13.8809 20.1885C13.5013 20.5765 13.1486 20.9274 12.8318 21.2352C12.7206 21.3432 12.6217 21.4382 12.5363 21.5195C12.4845 21.5687 12.4484 21.6027 12.4291 21.6207C12.1874 21.8463 11.8124 21.8463 11.5708 21.6207C11.5515 21.6027 11.5154 21.5687 11.4636 21.5195C11.3781 21.4382 11.2793 21.3432 11.1681 21.2352C10.8512 20.9274 10.4986 20.5765 10.119 20.1885C9.03456 19.08 7.95007 17.8943 6.93649 16.678C5.91338 15.4502 5.01889 14.2576 4.28901 13.1222C2.95152 11.0417 2.21045 9.23017 2.21045 7.7255C2.21045 4.68006 4.67957 2.21094 7.72501 2.21094C9.42065 2.21094 10.9723 2.99128 11.9999 4.27421C13.0275 2.99128 14.5792 2.21094 16.2748 2.21094ZM12.9816 19.3088C14.0442 18.2227 15.1067 17.061 16.097 15.8727C17.0892 14.682 17.9535 13.5296 18.6527 12.442C19.871 10.5469 20.5315 8.93232 20.5315 7.72548C20.5315 5.37476 18.6255 3.46882 16.2748 3.46882C14.7071 3.46882 13.2984 4.33567 12.5524 5.70665C12.3141 6.14443 11.6857 6.14443 11.4474 5.70665C10.7014 4.33567 9.29266 3.46882 7.72499 3.46882C5.37427 3.46882 3.46833 5.37476 3.46833 7.72548C3.46833 8.93232 4.12882 10.5469 5.34711 12.442C6.04628 13.5296 6.9106 14.682 7.90281 15.8727C8.89309 17.061 9.9556 18.2227 11.0182 19.3088C11.3722 19.6708 11.7021 19.9994 11.9999 20.2894C12.2977 19.9994 12.6276 19.6708 12.9816 19.3088Z" fill="#333333"/>
</svg>
